<?xml version="1.0" encoding="UTF-8" standalone="no"?>
<!-- Generator: Adobe Illustrator 27.5.0, SVG Export Plug-In . SVG Version: 6.00 Build 0)  -->

<svg
   version="1.1"
   x="0px"
   y="0px"
   viewBox="0 0 500 500"
   style="enable-background:new 0 0 500 500;"
   xml:space="preserve"
   id="svg78"
   sodipodi:docname="certificate.svg"
   inkscape:version="1.4 (86a8ad7, 2024-10-11)"
   xmlns:inkscape="http://www.inkscape.org/namespaces/inkscape"
   xmlns:sodipodi="http://sodipodi.sourceforge.net/DTD/sodipodi-0.dtd"
   xmlns="http://www.w3.org/2000/svg"
   xmlns:svg="http://www.w3.org/2000/svg"><defs
   id="defs78" /><sodipodi:namedview
   id="namedview78"
   pagecolor="#ffffff"
   bordercolor="#000000"
   borderopacity="0.25"
   inkscape:showpageshadow="2"
   inkscape:pageopacity="0.0"
   inkscape:pagecheckerboard="0"
   inkscape:deskcolor="#d1d1d1"
   inkscape:zoom="0.78568896"
   inkscape:cx="273.0088"
   inkscape:cy="161.00519"
   inkscape:window-width="1366"
   inkscape:window-height="697"
   inkscape:window-x="-8"
   inkscape:window-y="-8"
   inkscape:window-maximized="1"
   inkscape:current-layer="svg78" />
<g
   id="BACKGROUND"
   style="fill:#ffffff;fill-opacity:1">
	<rect
   style="fill:#ffffff;fill-opacity:1"
   width="500"
   height="500"
   id="rect1" />
</g>
<g
   id="OBJECTS">
	<g
   id="g78">
		
			
		<path
   style="fill:#F3B740;"
   d="M63.315,160.883c0,21.794,17.668,39.462,39.462,39.462v-39.462H63.315z"
   id="path1" />
		
			<ellipse
   transform="matrix(0.9719 -0.2354 0.2354 0.9719 -23.3776 46.142)"
   style="fill:#F3B740;"
   cx="181.594"
   cy="120.997"
   rx="58.705"
   ry="58.705"
   id="ellipse1" />
		<g
   id="g16">
			<circle
   style="fill:#F3B740;"
   cx="374.844"
   cy="124.599"
   r="45.642"
   id="circle1" />
			
				<ellipse
   transform="matrix(0.9868 -0.1622 0.1622 0.9868 -15.2461 62.4487)"
   style="fill:#FFFFFF;"
   cx="374.844"
   cy="124.599"
   rx="39.93"
   ry="39.93"
   id="ellipse2" />
			<g
   id="g12">
				<rect
   x="374.296"
   y="151.542"
   style="fill:#0D3C5B;"
   width="1.095"
   height="7.951"
   id="rect2" />
				<rect
   x="374.296"
   y="89.705"
   style="fill:#0D3C5B;"
   width="1.095"
   height="7.95"
   id="rect3" />
				<g
   id="g5">
					
						<rect
   x="357.611"
   y="94.177"
   transform="matrix(0.866 -0.5 0.5 0.866 0.1378 191.9098)"
   style="fill:#0D3C5B;"
   width="1.094"
   height="3.042"
   id="rect4" />
					
						<rect
   x="390.983"
   y="151.979"
   transform="matrix(0.866 -0.5 0.5 0.866 -24.2934 216.3419)"
   style="fill:#0D3C5B;"
   width="1.094"
   height="3.042"
   id="rect5" />
				</g>
				<g
   id="g7">
					
						<rect
   x="345.395"
   y="106.392"
   transform="matrix(0.5001 -0.866 0.866 0.5001 79.4889 353.5223)"
   style="fill:#0D3C5B;"
   width="1.095"
   height="3.042"
   id="rect6" />
					
						<rect
   x="403.198"
   y="139.764"
   transform="matrix(0.5001 -0.866 0.866 0.5001 79.4774 420.2514)"
   style="fill:#0D3C5B;"
   width="1.095"
   height="3.042"
   id="rect7" />
				</g>
				<g
   id="g9">
					
						<rect
   x="344.422"
   y="140.738"
   transform="matrix(0.8661 -0.4999 0.4999 0.8661 -24.2992 191.8703)"
   style="fill:#0D3C5B;"
   width="3.042"
   height="1.095"
   id="rect8" />
					
						<rect
   x="402.224"
   y="107.366"
   transform="matrix(0.8661 -0.4999 0.4999 0.8661 0.1264 216.2979)"
   style="fill:#0D3C5B;"
   width="3.042"
   height="1.095"
   id="rect9" />
				</g>
				<g
   id="g11">
					
						<rect
   x="356.636"
   y="152.953"
   transform="matrix(0.5004 -0.8658 0.8658 0.5004 46.0449 386.7919)"
   style="fill:#0D3C5B;"
   width="3.042"
   height="1.094"
   id="rect10" />
					
						<rect
   x="390.009"
   y="95.151"
   transform="matrix(0.5004 -0.8658 0.8658 0.5004 112.7654 386.8064)"
   style="fill:#0D3C5B;"
   width="3.042"
   height="1.094"
   id="rect11" />
				</g>
			</g>
			<g
   id="g13">
				<rect
   x="339.95"
   y="124.051"
   style="fill:#0D3C5B;"
   width="7.95"
   height="1.095"
   id="rect12" />
				<rect
   x="401.787"
   y="124.051"
   style="fill:#0D3C5B;"
   width="7.951"
   height="1.095"
   id="rect13" />
			</g>
			<path
   style="fill:#0D3C5B;"
   d="M374.843,125.146c-0.06,0-0.121-0.01-0.18-0.03l-11.189-3.877c-0.286-0.1-0.436-0.411-0.338-0.697     c0.1-0.286,0.412-0.435,0.697-0.338l10.462,3.625v-18.861c0-0.302,0.245-0.547,0.547-0.547c0.303,0,0.547,0.245,0.547,0.547     v19.631c0,0.177-0.085,0.343-0.23,0.446C375.067,125.112,374.956,125.146,374.843,125.146z"
   id="path13" />
			<path
   style="fill:#0D3C5B;"
   d="M374.843,124.873c-0.12,0-0.23-0.079-0.263-0.199c-0.042-0.145,0.043-0.297,0.189-0.338     l31.508-8.882c0.148-0.039,0.297,0.044,0.337,0.189c0.042,0.145-0.043,0.297-0.189,0.338l-31.508,8.882     C374.893,124.869,374.868,124.873,374.843,124.873z"
   id="path14" />
			<g
   id="g15">
				<path
   style="fill:#E87A31;"
   d="M377.52,124.599c0-1.478-1.198-2.676-2.676-2.676c-1.478,0-2.676,1.198-2.676,2.676      s1.198,2.676,2.676,2.676C376.322,127.275,377.52,126.077,377.52,124.599z"
   id="path15" />
				<circle
   style="fill:#FFFFFF;"
   cx="374.844"
   cy="124.599"
   r="1.091"
   id="circle15" />
			</g>
		</g>
		<g
   id="g27">
			<path
   style="fill:#831843;fill-opacity:1"
   d="M76.983,101.495c-1.219,0-2.211,0.992-2.211,2.211c0,1.219,0.992,2.211,2.211,2.211     c1.219,0,2.211-0.992,2.211-2.211C79.194,102.487,78.202,101.495,76.983,101.495z"
   id="path16" />
			<circle
   style="fill:#831843;fill-opacity:1"
   cx="97.253"
   cy="103.706"
   r="2.211"
   id="circle16" />
			<circle
   style="fill:#831843;fill-opacity:1"
   cx="117.522"
   cy="103.706"
   r="2.211"
   id="circle17" />
			<circle
   style="fill:#831843;fill-opacity:1"
   cx="137.791"
   cy="103.706"
   r="2.211"
   id="circle18" />
			<path
   style="fill:#831843;fill-opacity:1"
   d="M76.983,123.489c-1.219,0-2.211,0.992-2.211,2.211c0,1.219,0.992,2.211,2.211,2.211     c1.219,0,2.211-0.992,2.211-2.211C79.194,124.48,78.202,123.489,76.983,123.489z"
   id="path18" />
			<circle
   style="fill:#831843;fill-opacity:1"
   cx="97.253"
   cy="125.7"
   r="2.211"
   id="circle19" />
			<circle
   style="fill:#831843;fill-opacity:1"
   cx="117.522"
   cy="125.7"
   r="2.211"
   id="circle20" />
			<circle
   style="fill:#831843;fill-opacity:1"
   cx="137.791"
   cy="125.7"
   r="2.211"
   id="circle21" />
			<path
   style="fill:#831843;fill-opacity:1"
   d="M76.983,145.482c-1.219,0-2.211,0.992-2.211,2.211c0,1.219,0.992,2.211,2.211,2.211     c1.219,0,2.211-0.992,2.211-2.211C79.194,146.474,78.202,145.482,76.983,145.482z"
   id="path21" />
			<circle
   style="fill:#831843;fill-opacity:1"
   cx="97.253"
   cy="147.693"
   r="2.211"
   id="circle22" />
			<circle
   style="fill:#831843;fill-opacity:1"
   cx="117.522"
   cy="147.693"
   r="2.211"
   id="circle23" />
			<circle
   style="fill:#831843;fill-opacity:1"
   cx="137.791"
   cy="147.693"
   r="2.211"
   id="circle24" />
			<path
   style="fill:#831843;fill-opacity:1"
   d="M76.983,167.476c-1.219,0-2.211,0.992-2.211,2.211c0,1.219,0.992,2.211,2.211,2.211     c1.219,0,2.211-0.992,2.211-2.211C79.194,168.468,78.202,167.476,76.983,167.476z"
   id="path24" />
			<circle
   style="fill:#831843;fill-opacity:1"
   cx="97.253"
   cy="169.687"
   r="2.211"
   id="circle25" />
			<circle
   style="fill:#831843;fill-opacity:1"
   cx="117.522"
   cy="169.687"
   r="2.211"
   id="circle26" />
			<circle
   style="fill:#831843;fill-opacity:1"
   cx="137.791"
   cy="169.687"
   r="2.211"
   id="circle27" />
		</g>
		<g
   id="g36">
			<path
   style="fill:#be185d;fill-opacity:1"
   d="M392.374,213.498c0,21.794,17.668,39.462,39.462,39.462v-39.462H392.374z"
   id="path27" />
			<g
   id="g35">
				<path
   style="fill:#be185d;fill-opacity:1"
   d="M362.685,196.718c-1.22,0-2.212,0.992-2.212,2.211s0.992,2.211,2.212,2.211      c1.219,0,2.211-0.992,2.211-2.211S363.903,196.718,362.685,196.718z"
   id="path28" />
				<path
   style="fill:#be185d;fill-opacity:1"
   d="M382.954,196.718c-1.219,0-2.211,0.992-2.211,2.211s0.992,2.211,2.211,2.211      c1.219,0,2.211-0.992,2.211-2.211S384.173,196.718,382.954,196.718z"
   id="path29" />
				<path
   style="fill:#be185d;fill-opacity:1"
   d="M403.223,196.718c-1.219,0-2.211,0.992-2.211,2.211s0.992,2.211,2.211,2.211      c1.219,0,2.211-0.992,2.211-2.211S404.443,196.718,403.223,196.718z"
   id="path30" />
				<path
   style="fill:#be185d;fill-opacity:1"
   d="M423.493,201.14c1.22,0,2.212-0.992,2.212-2.211s-0.992-2.211-2.212-2.211      c-1.219,0-2.211,0.992-2.211,2.211S422.274,201.14,423.493,201.14z"
   id="path31" />
				<path
   style="fill:#be185d;fill-opacity:1"
   d="M362.685,218.712c-1.22,0-2.212,0.992-2.212,2.211s0.992,2.211,2.212,2.211      c1.219,0,2.211-0.992,2.211-2.211S363.903,218.712,362.685,218.712z"
   id="path32" />
				<path
   style="fill:#be185d;fill-opacity:1"
   d="M382.954,218.712c-1.219,0-2.211,0.992-2.211,2.211s0.992,2.211,2.211,2.211      c1.219,0,2.211-0.992,2.211-2.211S384.173,218.712,382.954,218.712z"
   id="path33" />
				<path
   style="fill:#FFFFFF;"
   d="M403.223,218.712c-1.219,0-2.211,0.992-2.211,2.211s0.992,2.211,2.211,2.211      c1.219,0,2.211-0.992,2.211-2.211S404.443,218.712,403.223,218.712z"
   id="path34" />
				<path
   style="fill:#FFFFFF;"
   d="M423.493,218.712c-1.219,0-2.211,0.992-2.211,2.211s0.992,2.211,2.211,2.211      c1.22,0,2.212-0.992,2.212-2.211S424.712,218.712,423.493,218.712z"
   id="path35" />
			</g>
		</g>
		<g
   id="g44">
			<path
   style="fill:#77bc18;fill-opacity:1"
   d="M117.491,225.194c0,7.631-3.211,34.65-7.172,34.65c-3.961,0-7.172-27.019-7.172-34.65     c0-7.631,3.211-13.817,7.172-13.817C114.279,211.377,117.491,217.563,117.491,225.194z"
   id="path36" />
			<path
   style="fill:#77bc18;fill-opacity:1"
   d="M85.005,246.594c4.463,1.448,12.528,6.848,17.405,13.004c5.144,6.01,7.583,13.564,5.992,14.38     c-1.652,1.042-6.804-3.898-12.622-7.196c-5.708-3.524-12.563-6.193-16.05-7.398c-6.709-2.643-12.762-6.079-12.472-9.909     C67.486,245.68,76.008,243.067,85.005,246.594z"
   id="path37" />
			<path
   style="fill:#77bc18;fill-opacity:1"
   d="M79.174,286.082c5.571,2.219,15.407,9.779,21.115,18.038c6.06,8.095,8.191,18.901,6.093,19.808     c-2.195,1.191-8.005-6.507-15.15-11.199c-6.986-4.971-15.507-8.947-19.854-10.775c-8.336-3.93-15.77-8.818-15.081-13.678     C56.905,283.455,67.994,280.833,79.174,286.082z"
   id="path38" />
			<path
   style="fill:#77bc18;fill-opacity:1"
   d="M140.966,258.675c-5.087,1.193-14.538,6.437-20.523,12.815     c-6.267,6.192-9.799,14.826-8.109,15.879c1.737,1.309,8.038-4.171,14.801-7.291c6.662-3.381,14.517-5.707,18.498-6.72     c7.69-2.31,14.727-5.561,14.761-9.839C160.493,259.287,151.277,255.596,140.966,258.675z"
   id="path39" />
			<path
   style="fill:#77bc18;fill-opacity:1"
   d="M141.294,288.844c-5.087,1.193-14.538,6.436-20.523,12.815     c-6.267,6.192-9.171,12.289-7.481,13.342c1.737,1.309,7.41-1.634,14.172-4.754c6.662-3.381,14.517-5.707,18.498-6.72     c7.69-2.31,14.727-5.561,14.761-9.839C160.821,289.456,151.605,285.764,141.294,288.844z"
   id="path40" />
			<g
   id="g43">
				<path
   style="fill:#F3B740;"
   d="M130.59,344.078v25.86c0,5.875-4.762,10.637-10.637,10.637h-19.786      c-5.874,0-10.637-4.762-10.637-10.637v-25.86H130.59z"
   id="path41" />
				<path
   style="fill:#F29541;"
   d="M119.807,344.078v25.86c0,5.875-4.762,10.637-10.636,10.637h10.782      c5.875,0,10.637-4.762,10.637-10.637v-25.86H119.807z"
   id="path42" />
				<rect
   x="119.807"
   y="349.99"
   style="fill:#E9973A;"
   width="10.782"
   height="4.562"
   id="rect42" />
				<rect
   x="89.531"
   y="349.99"
   style="fill:#E87A31;"
   width="41.059"
   height="4.562"
   id="rect43" />
			</g>
			<path
   style="fill:#0D3C5B;"
   d="M110.769,316.902v-26.885c0.437-0.611,10.031-13.809,24.188-17.268l-0.238-0.975     c-12.336,3.014-21.265,13.202-23.95,16.587v-11.556l0.011-0.004c-0.001-0.002-0.007-0.017-0.011-0.026v-37.475h-1.004v35.461     c-2.11-3.848-7.669-12.219-18.08-16.896l-0.412,0.916c12.46,5.598,17.781,16.623,18.492,18.205v52.519     c-2.797-5.985-13.418-26.004-33.141-33.006l-0.336,0.947c22.747,8.074,33.202,33.886,33.305,34.145l0.172-0.068v12.554h1.004     v-25.529c0.423-0.591,8.775-12.051,21.101-15.063l-0.238-0.975C120.988,305.113,113.242,313.814,110.769,316.902z"
   id="path43" />
		</g>
		<g
   id="g55">
			<g
   id="g53">
				<g
   id="g46">
					<rect
   x="316.302"
   y="333.17"
   style="fill:#587a42;fill-opacity:1"
   width="127.444"
   height="26.805"
   id="rect44" />
					<rect
   x="324.099"
   y="333.17"
   style="fill:#6abb68;fill-opacity:1"
   width="17.301"
   height="26.805"
   id="rect45" />
					<rect
   x="417.274"
   y="333.17"
   style="fill:#6abb68;fill-opacity:1"
   width="17.301"
   height="26.805"
   id="rect46" />
				</g>
				<g
   id="g47">
					<path
   style="fill:#831843;fill-opacity:1"
   d="M419.077,304.19v-4.483h-76.365V288.69h76.365v-4.483h-77.882c-1.618,0-2.93,1.325-2.93,2.96       v14.063c0,1.635,1.312,2.96,2.93,2.96H419.077z"
   id="path46" />
					<rect
   x="342.712"
   y="288.69"
   style="fill:#FFFFFF;"
   width="71.988"
   height="11.018"
   id="rect47" />
				</g>
				<g
   id="g48">
					<path
   style="fill:#F3B740;"
   d="M327.674,304.261v5.576h89.569v17.757h-89.569v5.576h96.617c1.789,0,3.239-1.465,3.239-3.273       v-22.363c0-1.808-1.45-3.273-3.239-3.273H327.674z"
   id="path47" />
					<rect
   x="332.848"
   y="309.837"
   style="fill:#FFFFFF;"
   width="84.395"
   height="17.757"
   id="rect48" />
				</g>
				<g
   id="g52">
					<rect
   x="322.405"
   y="359.974"
   style="fill:#831843;fill-opacity:1"
   width="112.052"
   height="20.007"
   id="rect49" />
					<rect
   x="346.745"
   y="367.108"
   style="fill:#F3B740;"
   width="63.373"
   height="5.735"
   id="rect50" />
					<rect
   x="331.121"
   y="359.974"
   style="fill:#F3B740;"
   width="9.385"
   height="20.007"
   id="rect51" />
					<rect
   x="415.096"
   y="359.974"
   style="fill:#F3B740;"
   width="9.385"
   height="20.007"
   id="rect52" />
				</g>
			</g>
			<g
   style="opacity:0.8;"
   id="g54">
				<path
   style="fill:#E2D6CC;"
   d="M341.191,284.211c-1.611,0-2.925,1.324-2.925,2.954v14.061c0,1.64,1.314,2.964,2.925,2.964      h13.236v-19.979H341.191z"
   id="path53" />
				<polygon
   style="fill:#E2D6CC;"
   points="327.677,309.839 332.847,309.839 332.847,323.823 354.427,323.823 354.427,304.256       327.677,304.256     "
   id="polygon53" />
			</g>
		</g>
		<g
   id="g77">
			<g
   id="g60">
				<g
   id="g58">
					<path
   style="fill:#273137;fill-opacity:1"
   d="M312.485,134.519v231.794c0,7.441-6.032,13.474-13.474,13.474H183.503       c-7.441,0-13.474-6.032-13.474-13.474V134.519c0-7.441,6.032-13.473,13.474-13.473h115.509       C306.453,121.046,312.485,127.078,312.485,134.519z"
   id="path55" />
					<path
   style="fill:#be185d;fill-opacity:1"
   d="M183.503,376.517c-5.626,0-10.203-4.578-10.203-10.204V134.519       c0-5.626,4.577-10.203,10.203-10.203h115.509c5.626,0,10.203,4.577,10.203,10.203v231.793c0,5.626-4.577,10.204-10.203,10.204       H183.503z"
   id="path56" />
					<rect
   x="173.299"
   y="294.119"
   style="fill:#831843;fill-opacity:1"
   width="135.916"
   height="30.975"
   id="rect56" />
					<path
   style="fill:#831843;fill-opacity:1"
   d="M299.012,124.316h-7.213c5.626,0,10.203,4.577,10.203,10.203v231.793       c0,5.626-4.577,10.204-10.203,10.204h7.213c5.626,0,10.203-4.578,10.203-10.204V134.519       C309.215,128.893,304.638,124.316,299.012,124.316z"
   id="path57" />
					<path
   style="fill:#273137;fill-opacity:1"
   d="M267.751,121.046v6.374c0,5.132-4.158,9.297-9.291,9.297h-34.407       c-5.133,0-9.291-4.164-9.291-9.297v-6.374H267.751z"
   id="path58" />
				</g>
				<rect
   x="188.663"
   y="152.395"
   style="fill:#e53880;stroke:none;stroke-opacity:1;fill-opacity:1"
   width="103.377"
   height="27.225"
   id="rect58" />
				<rect
   x="188.663"
   y="337.399"
   style="fill:#e53880;stroke:none;stroke-opacity:1;fill-opacity:1"
   width="103.377"
   height="9.991"
   id="rect59" />
				<rect
   x="200.649"
   y="358.011"
   style="fill:#e53880;stroke:none;stroke-opacity:1;fill-opacity:1"
   width="79.405"
   height="7.674"
   id="rect60" />
			</g>
			<g
   id="g76">
				<rect
   x="146.461"
   y="191.392"
   style="fill:#FFFFFF;"
   width="192.903"
   height="122.842"
   id="rect61" />
				
					<rect
   x="186.225"
   y="161.095"
   transform="matrix(-1.836970e-16 1 -1 -1.836970e-16 495.7255 9.9002)"
   style="fill:#ffffff;stroke:#bb8e06;stroke-miterlimit:10;fill-opacity:1;stroke-opacity:1"
   width="113.375"
   height="183.436"
   id="rect62" />
				<g
   id="g73">
					<rect
   x="201.867"
   y="208.829"
   style="fill:#831843;fill-opacity:1"
   width="82.092"
   height="4.358"
   id="rect63" />
					<rect
   x="215.989"
   y="220.476"
   style="fill:#831843;fill-opacity:1"
   width="53.846"
   height="4.358"
   id="rect64" />
					<g
   id="g66"
   style="fill:#831843;fill-opacity:1">
						<rect
   x="194.613"
   y="246.376"
   style="fill:#831843;fill-opacity:1"
   width="96.599"
   height="2.774"
   id="rect65" />
						<rect
   x="194.613"
   y="255.779"
   style="fill:#831843;fill-opacity:1"
   width="96.599"
   height="2.774"
   id="rect66" />
					</g>
					<g
   id="g68"
   style="fill:#831843;fill-opacity:1">
						<rect
   x="189.926"
   y="294.404"
   style="fill:#831843;fill-opacity:1"
   width="28.42"
   height="1.665"
   id="rect67" />
						<rect
   x="267.479"
   y="294.404"
   style="fill:#831843;fill-opacity:1"
   width="28.42"
   height="1.665"
   id="rect68" />
					</g>
					<g
   id="g72">
						<g
   id="g69">
							<polygon
   style="fill:#E9973A;"
   points="235.981,299.728 233.7,297.222 230.22,296.408 235.442,287.348 241.203,290.668                 "
   id="polygon68" />
							<polygon
   style="fill:#E9973A;"
   points="249.844,299.728 252.125,297.222 255.604,296.408 250.382,287.348 244.622,290.668                 "
   id="polygon69" />
						</g>
						<g
   id="g71">
							<path
   style="fill:#F3B740;"
   d="M243.547,270.659L243.547,270.659c0.463,0.374,1.088,0.478,1.647,0.275l0,0         c0.752-0.273,1.593,0.016,2.018,0.693l0,0c0.317,0.504,0.874,0.805,1.468,0.795h0c0.8-0.014,1.501,0.532,1.684,1.311l0,0         c0.136,0.579,0.565,1.045,1.131,1.228h0c0.761,0.247,1.247,0.991,1.167,1.787v0c-0.06,0.592,0.195,1.172,0.671,1.529l0,0         c0.64,0.48,0.858,1.342,0.524,2.069l0,0c-0.249,0.541-0.196,1.172,0.138,1.664l0,0c0.449,0.662,0.376,1.548-0.176,2.127l0,0         c-0.411,0.431-0.566,1.044-0.41,1.619v0c0.21,0.772-0.147,1.586-0.857,1.954l0,0c-0.528,0.274-0.875,0.804-0.913,1.398v0         c-0.052,0.798-0.654,1.452-1.445,1.57h0c-0.588,0.088-1.088,0.477-1.317,1.025v0c-0.309,0.738-1.09,1.161-1.877,1.016h0         c-0.585-0.108-1.184,0.097-1.579,0.542v0c-0.531,0.598-1.408,0.744-2.105,0.351l0,0c-0.518-0.292-1.151-0.292-1.67,0v0         c-0.697,0.393-1.574,0.247-2.105-0.351l0,0c-0.395-0.445-0.994-0.65-1.579-0.542h0c-0.787,0.146-1.568-0.277-1.877-1.016v0         c-0.229-0.549-0.729-0.938-1.318-1.025h0c-0.791-0.118-1.393-0.772-1.445-1.57v0c-0.039-0.594-0.385-1.124-0.913-1.398l0,0         c-0.71-0.368-1.067-1.182-0.857-1.954v0c0.156-0.574,0.001-1.188-0.41-1.619l0,0c-0.552-0.579-0.626-1.465-0.176-2.127h0         c0.334-0.492,0.386-1.123,0.138-1.664v0c-0.334-0.727-0.116-1.589,0.524-2.069v0c0.476-0.357,0.73-0.937,0.671-1.529v0         c-0.08-0.796,0.406-1.54,1.167-1.787h0c0.566-0.183,0.995-0.649,1.131-1.228v0c0.183-0.779,0.884-1.325,1.684-1.311h0         c0.595,0.01,1.152-0.291,1.468-0.795v0c0.426-0.677,1.266-0.966,2.019-0.693h0c0.559,0.203,1.184,0.099,1.647-0.275l0,0         C242.036,270.156,242.924,270.156,243.547,270.659z"
   id="path69" />
							<circle
   style="fill:#E9973A;"
   cx="242.48"
   cy="282.056"
   r="8.113"
   id="circle69" />
							<path
   style="opacity:0.53;fill:#FCFCFC;"
   d="M234.65,282.339c0-4.48,3.632-8.113,8.113-8.113         c2.168,0,4.133,0.856,5.588,2.241c-1.478-1.552-3.559-2.525-5.871-2.525c-4.48,0-8.113,3.632-8.113,8.113         c0,2.312,0.972,4.393,2.524,5.871C235.506,286.472,234.65,284.508,234.65,282.339z"
   id="path70" />
							<path
   style="fill:#E87A31;"
   d="M247.821,275.961c1.252,1.428,2.017,3.293,2.017,5.341c0,4.48-3.632,8.113-8.113,8.113         c-2.048,0-3.913-0.765-5.341-2.017c1.487,1.696,3.663,2.772,6.096,2.772c4.48,0,8.113-3.632,8.113-8.113         C250.593,279.624,249.517,277.447,247.821,275.961z"
   id="path71" />
						</g>
					</g>
				</g>
				<path
   style="fill:#be185d;fill-opacity:1"
   d="M180.223,200.253c-0.23,13.338-11.105,24.071-24.496,24.071c-0.133,0-0.266,0-0.399-0.009      v-24.062H180.223z"
   id="path73" />
				<path
   style="fill:#be185d;fill-opacity:1"
   d="M330.499,200.253v24.009c-0.549,0.044-1.108,0.062-1.666,0.062      c-13.392,0-24.266-10.733-24.497-24.071H330.499z"
   id="path74" />
				<path
   style="fill:#be185d;fill-opacity:1"
   d="M180.232,304.904c0,0.16,0,0.319-0.009,0.47h-24.895v-24.966      c0.133-0.009,0.266-0.009,0.399-0.009C169.26,280.398,180.232,291.361,180.232,304.904z"
   id="path75" />
				<path
   style="fill:#be185d;fill-opacity:1"
   d="M330.499,280.46v24.913h-26.163c-0.009-0.151-0.009-0.31-0.009-0.47      c0-13.542,10.972-24.505,24.505-24.505C329.391,280.398,329.949,280.416,330.499,280.46z"
   id="path76" />
			</g>
		</g>
		<line
   style="fill:none;stroke:#1C505E;stroke-miterlimit:10;"
   x1="39.551"
   y1="380.575"
   x2="460.449"
   y2="380.575"
   id="line77" />
	</g>
</g>
</svg>
